PathFileType        4      (X/Y/Z)      C:\Users\pc\Desktop\IMUTRC\Sujet_08\Sujet_08_velo_60.trc         
DataRate	CameraRate	NumFrames	NumMarkers	Units	OrigDataRate	OrigDataStartFrame	OrigNumFrames
60.0	60.0	4	64	mm	60.0	1	934
Frame#	Time	pHipOrigin			pRightASI			pLeftASI			pRightCSI			pLeftCSI			pRightIschialTub			pLeftIschialTub			pSacrum			pL5SpinalProcess			pL3SpinalProcess			pT12SpinalProcess			pIJ			pT4SpinalProcess			pT8SpinalProcess			pPX			pC7SpinalProcess			pTopOfHead			pRightAuricularis			pLeftAuricularis			pBackOfHead			pRightAcromion			pLeftAcromion			pRightArmLatEpicondyle			pRightArmMedEpicondyle			pLeftArmLatEpicondyle			pLeftArmMedEpicondyle			pRightUlnarStyloid			pRightRadialStyloid			pRightOlecranon			pLeftUlnarStyloid			pLeftRadialStyloid			pLeftOlecranon			pRightTopOfHand			pRightPinky			pRightBallHand			pLeftTopOfHand			pLeftPinky			pLeftBallHand			pRightGreaterTrochanter			pRightKneeLatEpicondyle			pRightKneeMedEpicondyle			pRightPatella			pLeftGreaterTrochanter			pLeftKneeLatEpicondyle			pLeftKneeMedEpicondyle			pLeftPatella			pRightTibialTub			pRightLatMalleolus			pRightMedMalleolus			pLeftTibialTub			pLeftLatMalleolus			pLeftMedMalleolus			pRightHeelFoot			pRightFirstMetatarsal			pRightFifthMetatarsal			pRightPivotFoot			pRightHeelCenter			pRightToe			pLeftHeelFoot			pLeftFirstMetatarsal			pLeftFifthMetatarsal			pLeftPivotFoot			pLeftHeelCenter			pLeftToe			
		X1	Y1	Z1	X2	Y2	Z2	X3	Y3	Z3	X4	Y4	Z4	X5	Y5	Z5	X6	Y6	Z6	X7	Y7	Z7	X8	Y8	Z8	X9	Y9	Z9	X10	Y10	Z10	X11	Y11	Z11	X12	Y12	Z12	X13	Y13	Z13	X14	Y14	Z14	X15	Y15	Z15	X16	Y16	Z16	X17	Y17	Z17	X18	Y18	Z18	X19	Y19	Z19	X20	Y20	Z20	X21	Y21	Z21	X22	Y22	Z22	X23	Y23	Z23	X24	Y24	Z24	X25	Y25	Z25	X26	Y26	Z26	X27	Y27	Z27	X28	Y28	Z28	X29	Y29	Z29	X30	Y30	Z30	X31	Y31	Z31	X32	Y32	Z32	X33	Y33	Z33	X34	Y34	Z34	X35	Y35	Z35	X36	Y36	Z36	X37	Y37	Z37	X38	Y38	Z38	X39	Y39	Z39	X40	Y40	Z40	X41	Y41	Z41	X42	Y42	Z42	X43	Y43	Z43	X44	Y44	Z44	X45	Y45	Z45	X46	Y46	Z46	X47	Y47	Z47	X48	Y48	Z48	X49	Y49	Z49	X50	Y50	Z50	X51	Y51	Z51	X52	Y52	Z52	X53	Y53	Z53	X54	Y54	Z54	X55	Y55	Z55	X56	Y56	Z56	X57	Y57	Z57	X58	Y58	Z58	X59	Y59	Z59	X60	Y60	Z60	X61	Y61	Z61	X62	Y62	Z62	X63	Y63	Z63	X64	Y64	Z64	
1	0.0	0.0	1249.97582	7.653894434872941E-14	118.77530079303615	1320.58588	109.87015912862236	65.18116292475885	1318.32377	-149.13300529030627	95.15722938107004	1396.52805	90.28290973736354	51.04182337069416	1394.5891	-122.91360422035692	-57.40495416405548	1216.36737	67.8120212966381	-79.46265716924343	1215.3979	-38.78623568222213	-53.57528779827452	1291.34007	10.734053294681292	11.559184884631755	1370.35224	-3.212097589395473	78.47208339605676	1462.6139	-17.008736648664073	138.32778495187245	1547.76608	-28.93238008662488	380.26813045373285	1594.13928	-78.80821600410015	268.68129474869795	1682.52304	-54.5127641709697	205.1003948370421	1626.45509	-41.93340281031245	296.48882764466725	1513.99605	-62.40714006659219	309.92061620075435	1717.5857	-61.35132424630471	520.6579336197892	1819.05737	-154.79373326704928	485.0376748955663	1763.63574	-58.85787502919994	421.81288271404424	1761.85837	-177.63714904273587	425.5577855555717	1805.48472	-103.96490658520564	347.15707364443887	1660.06354	89.43348885419414	280.84521889642934	1666.52671	-218.4085054918312	482.6667348146143	1412.84754	55.08204901422319	447.04511896878125	1398.30542	6.798636813475696	411.9567806889893	1407.67701	-177.57025695720105	383.8187723088903	1399.75963	-123.13778934343883	571.7809231593835	1177.58839	36.34022500521337	610.9769657111855	1198.10893	9.452775593758647	444.9727150275279	1398.467	46.46671488528524	514.6646015699445	1181.62787	-175.70319618062274	558.5368000745625	1206.02631	-163.04519538560436	375.33362588436654	1394.26594	-158.7608641075758	737.9482892327624	1078.70199	95.17291608541622	647.9492549498106	1096.31411	77.99108720230383	607.6576929530412	1145.91889	34.79082178403823	662.7826535817109	1085.48831	-274.11641428551684	580.186056095446	1101.16148	-233.71639586229884	550.9710702275503	1151.73573	-183.41155129548247	22.420616928225595	1221.37632	158.50890571717474	201.49578596970073	867.35654	152.5122701174983	213.73748702451303	868.16444	76.57267612918675	244.64070929449895	889.49288	118.11752394956329	0.454845336516442	1243.83581	-161.69449971239166	383.00265773983955	1147.04994	-203.18460717825522	397.2217206292067	1146.08047	-127.50142522634984	398.199474737185	1188.89892	-163.752942003859	252.39052160564825	827.60809	116.03851999305931	106.12496698171991	475.68883	141.60240584500167	109.87929037855892	474.88094	81.22972051437598	424.4061517019912	1106.97833	-173.73438078954013	240.37734682736772	772.34804	-183.37765032682182	254.3038905223042	768.47014	-124.64543710356996	39.823124679898875	419.94405	107.26970081881338	180.28486546837195	353.05031	77.40102382049953	176.31724711792782	352.24241	152.01033724134612	197.36272543602053	343.35556	114.53922581978843	74.31505050288395	406.20983	108.92162735818958	268.6304285816562	307.80816	117.91762811970021	177.1281920729824	718.86536	-141.04280942979807	315.9468491553389	642.60003	-140.19166175558667	299.36014438692075	647.12424	-212.68274525708932	325.7786689715874	634.52108	-180.1322616193158	209.96198329119304	703.35377	-149.5275639044693	392.91564822513504	595.41894	-197.99117453380515	
2	0.017	0.0	1249.97582	7.653894434872941E-14	117.39007819355207	1321.87851	110.28218738357408	64.96592154293229	1318.97009	-148.84281288939027	92.97637886144564	1397.65911	90.55465747765567	49.87183056847733	1395.07384	-122.79176025472543	-57.18971278222892	1215.72105	67.52182889572211	-78.90110724140601	1214.59	-39.179437174774996	-54.02460543592224	1290.69375	10.490753840307308	10.417260003039875	1370.6754	-3.2493771240139404	76.7966666591749	1463.26022	-16.811939927461392	136.4651866421932	1548.73555	-28.60452604931544	378.37747233502444	1594.94717	-78.32122688198147	266.9778216757505	1683.49251	-54.15685206111282	203.0786695541494	1627.42457	-41.63359699747291	294.43904602570893	1514.80394	-61.94821886509845	308.21714312780676	1718.39359	-60.99541213644785	519.1416322715615	1819.5421	-154.5688802097809	483.3061420135896	1764.28206	-58.3428278345338	420.08134983206753	1762.50469	-177.12210184806975	423.85431248262415	1806.13104	-103.60899447534877	345.13534836154616	1660.87144	89.73329466703369	278.79543554098916	1667.49618	-217.9495744422599	480.83219457748254	1413.65544	55.25077781480093	445.1825189226202	1399.11332	7.126500698862671	410.09418064282835	1408.64648	-177.24239307181406	381.95617226272924	1400.56753	-122.80992545805185	570.6389982777915	1178.88102	36.30294547059489	609.8069844935278	1199.56314	9.574611447794341	443.29729829064615	1399.2749	46.66351160648793	513.3354933790735	1182.75892	-175.60940855105687	557.2076918836915	1207.31894	-162.95140775603852	373.63015107493726	1395.23542	-158.40494214964139	736.9654895879022	1080.1562	95.16369462334517	646.8073300682188	1097.60674	77.95380766768537	606.5157582233719	1147.21152	34.75354051293799	661.6126706275714	1086.78094	-273.99456858340363	578.9880150687593	1102.45411	-233.4354249234539	549.6138941160543	1153.02837	-183.15864016566672	22.44867500077302	1221.21474	158.34978048044303	208.131721623728	870.58812	150.23685965316236	220.53254791527203	872.20391	74.32532373739822	250.90228817804547	893.85551	116.1042495500777	0.7730859619023356	1241.89687	-161.6383853037786	381.7861639409332	1138.00151	-200.93803868617172	395.8460998570868	1138.32467	-125.28290495873618	397.4415200379974	1180.49681	-162.2458737022617	256.92056934369987	829.87019	114.54028294016229	93.81706044453094	485.86832	145.33876397953864	97.54331592074497	483.92937	85.12520214916287	424.6029484231939	1099.70727	-172.05896405265827	249.87713668111755	760.39119	-187.93731061578978	263.4854281661088	756.02855	-129.26120368955523	26.10193573419661	432.22406	111.57722229311132	164.6730102923655	361.29084	82.19552283235683	160.7053902054396	361.12926	156.80484610128096	181.4045617140032	351.43452	119.4367339232826	60.2475431630933	417.35878	113.3321561876426	251.6614071422313	313.94817	122.96503999785504	188.41563906539955	704.48482	-146.4357558023363	329.799115113303	633.22844	-144.31199818412367	313.7459039366566	637.10634	-217.03716778952506	340.2954939490258	625.47265	-184.29949099439486	221.82980523736467	690.10428	-154.4900292498362	408.7804081558433	588.95577	-201.42851886680333	
3	0.033	0.0	1249.97582	7.653894434872941E-14	116.16397909431794	1323.33273	110.72228355915075	64.75069000918326	1319.77799	-148.55261875199247	90.9546553150347	1398.62858	90.8544534424177	48.70184761433803	1395.72016	-122.6699145526122	-57.133596637134076	1215.07474	67.20357842225867	-78.18044192491442	1213.62053	-39.54458233126222	-54.63304831030167	1290.04743	10.219396313385907	9.08814196409133	1370.99856	-3.155591230929897	74.96212468556134	1463.90653	-16.64320127880612	134.47151943184792	1549.70503	-28.4638454732076	376.4868159527977	1595.59349	-77.83424760794033	265.1152216295895	1684.30041	-53.82898817572585	201.2160695079884	1628.55562	-41.30573311208593	292.38926267026875	1515.77342	-61.48928781552719	306.3264850090984	1719.20149	-60.50842301432914	517.4381574621323	1820.02684	-154.2129582518465	481.6026689406421	1764.92837	-57.98691572467694	418.37787675912006	1762.98942	-176.7661897382129	422.3099629099266	1806.77736	-103.22501444486694	343.2446919793195	1661.51776	90.22027394107485	276.77371199457826	1668.30408	-217.6497784774979	478.96959453132155	1414.62491	55.57864170018791	443.31992061294096	1399.92121	7.454354736172122	408.3907075698809	1409.45438	-176.88648096195718	380.12163202559753	1401.37542	-122.64119665747408	569.4970733961998	1180.01208	36.26566593597643	608.6650596119359	1200.85578	9.537331913175878	441.43469998096685	1400.08279	46.99136564379739	511.9783172675775	1184.05155	-175.35649742124113	555.8505256202731	1208.61157	-162.698494889741	371.7675527652581	1396.04331	-158.07708811233192	735.8235548582328	1081.61041	95.12641335224494	645.824520575281	1098.89937	77.94458446913252	605.3738333417799	1148.50415	34.7162609783195	660.2835624367005	1088.23515	-273.9007809538378	577.65890861437	1103.74675	-233.3416471419656	548.443911161915	1154.321	-183.03679446355352	22.289549764041308	1221.05316	158.3217224078956	214.58048381655368	874.14286	148.09251808949247	227.14043534482943	876.40497	72.20904024627576	257.1358089890447	898.37973	114.25010038732381	1.0913364353657613	1239.79634	-161.58226915868374	380.35443687179605	1129.11466	-198.40126620861292	394.4143745244314	1130.73045	-122.74614232925491	396.8146325029942	1172.0947	-160.55162209138524	261.2634320359905	832.1323	113.1731228995271	81.82739279624606	496.85569	149.1312463707662	85.39453288380591	493.94727	88.8896282043248	424.7716772237716	1092.59779	-170.22442381552645	259.5641179557423	748.75749	-192.62802648438276	272.9852180198587	743.91012	-133.82086397852322	12.408793276482449	444.34249	115.72562664227328	148.90203799122307	369.53137	86.96197535622603	145.12159310198058	370.01611	161.44021987640653	165.6335894128608	359.35189	124.20318644715178	46.20810374392761	428.66932	117.58356151684568	234.6643258937772	320.08817	128.17158696081916	199.83414337392347	690.10428	-151.64152060207715	343.49224772293957	623.85686	-148.46040426976742	327.97252666510144	627.25002	-221.4196402829124	354.6251257691075	616.5858	-188.33565494177137	233.72568525608372	677.01638	-159.61161983193477	424.6732342706947	582.33103	-205.02497685197392	
4	0.05	0.0	1249.97582	7.653894434872941E-14	114.93787188348804	1324.46378	111.16236815016812	64.69457386408841	1320.26272	-148.23436827852905	89.0640070444038	1399.59805	91.34144430101817	47.69098004885291	1396.20489	-122.5200125144333	-57.10553856458665	1214.59	67.04445318552696	-77.80607704283793	1212.81263	-39.80670681155327	-55.08235609987185	1289.5627	9.976098595493701	8.10534231923116	1371.16014	-3.1648126930009437	73.60496015862466	1464.55285	-16.390298260586118	132.92716985915035	1550.35134	-28.079865442725776	375.04547547173706	1596.2398	-77.10395903144762	263.701940957558	1685.1083	-53.25783468404242	199.67172167177262	1629.36352	-40.92176292968164	290.81685676150556	1516.41974	-60.946192396391176	304.94125256153677	1719.84781	-60.0963964958592	516.1840020268326	1820.35	-153.61374668761567	480.37655999333043	1765.41311	-57.54682128558205	417.12370973926096	1763.47416	-176.1669700623863	420.9247403104426	1807.26209	-102.81298618991522	341.5131590973428	1662.16407	90.73532113574096	275.20130434933327	1669.11197	-217.10667321028433	477.61242826790306	1415.43281	55.83155456648544	441.77557104024345	1400.72911	7.8383347666539445	407.00548323391496	1410.26227	-176.47444285892797	378.7363978415541	1402.18332	-122.22916029092661	568.6733891399938	1181.14313	36.28450080997103	607.6541920464509	1202.14841	9.687233951354772	440.0775337175484	1400.72911	47.24427851009491	511.12658478690156	1185.02103	-175.17853557403302	554.839658054788	1209.74263	-162.54859285156212	370.3823185812147	1396.68963	-157.66505174578447	734.9998804501043	1082.74146	95.14524996272132	645.0289042397	1100.03043	77.8042958428772	604.550149085574	1149.63521	34.73509585231412	659.2726948712153	1089.36621	-273.7508789156589	576.8071662856166	1104.8778	-233.1636870312393	547.4330453329117	1155.45205	-182.88690227345216	22.63585831005215	1221.21474	158.21871331625874	222.79845037582706	878.66708	147.08048799549093	235.19926681929354	881.5755	71.168950343245	264.6892165288437	904.03499	113.2849632398643	1.2504616720974724	1237.85739	-161.55421108613632	378.08019240894004	1118.61202	-196.669352961343	392.29925356182537	1121.35887	-120.98616116136006	395.345233949386	1161.91522	-159.66220827816085	266.9542296815511	835.84862	112.53584790097278	71.94362464849617	509.62044	152.14654723895904	75.51076473605602	505.90412	91.90492907251766	423.72353823526373	1083.71094	-168.93258531119636	268.2310020912151	735.99274	-196.18605225449596	281.49298503019554	730.66063	-137.40693623662452	0.952617483487554	458.56145	119.28403277767968	135.23695360605635	379.3877	90.95125446865627	131.42846049234396	380.68033	165.58862596205032	151.6221964816832	369.04664	128.2954746512189	34.24649416819015	441.9188	121.21691867134153	219.64207698167382	327.68239	132.41376909146942	210.10149149070693	674.75427	-155.90176702805806	355.8470587912299	613.19264	-151.53221149642584	340.6736462794026	616.26264	-224.5944566012077	367.45730443599723	606.40631	-191.32329953534688	244.41429293796747	662.79742	-163.46944156681	438.72228883826574	574.41366	-207.4699081281884	
